<?xml version="1.0" encoding="utf-8"?>
<svg version="1.1" xmlns:xlink="http://www.w3.org/1999/xlink" width="15px" height="15px" xmlns="http://www.w3.org/2000/svg">
  <g transform="matrix(1 0 0 1 -51 -116 )">
    <path d="M 12.8438661710037 8.56975837879969  C 12.8500619578686 8.58534684333593  12.8531598513011 8.6087295401403  12.8531598513011 8.63990646921278  L 12.8531598513011 14.2517537022603  C 12.8531598513011 14.4544037412315  12.7942998760843 14.6297739672642  12.6765799256506 14.7778643803585  C 12.5588599752169 14.9259547934528  12.4194547707559 15  12.2583643122677 15  L 8.68959107806691 15  L 8.68959107806691 10.510522213562  L 6.31040892193309 10.510522213562  L 6.31040892193309 15  L 2.74163568773234 15  C 2.58054522924411 15  2.44114002478315 14.9259547934528  2.32342007434944 14.7778643803585  C 2.20570012391574 14.6297739672642  2.14684014869888 14.4544037412315  2.14684014869888 14.2517537022603  L 2.14684014869888 8.63990646921278  C 2.14684014869888 8.63211223694466  2.14838909541512 8.62042088854248  2.15148698884758 8.60483242400623  C 2.15458488228005 8.58924395946999  2.15613382899628 8.57755261106781  2.15613382899628 8.56975837879969  L 7.5 3.02805923616524  L 12.8438661710037 8.56975837879969  Z M 14.9907063197026 7.55845674201091  C 14.9969021065675 7.66367887763055  14.9752168525403 7.75526110678098  14.9256505576208 7.8332034294622  L 14.3494423791822 8.6983632112237  C 14.2998760842627 8.76851130163679  14.2348203221809 8.81137957911146  14.1542750929368 8.8269680436477  L 14.1263940520446 8.8269680436477  C 14.0458488228005 8.8269680436477  13.9807930607187 8.79968823070927  13.9312267657993 8.74512860483242  L 7.5 1.99922057677319  L 1.06877323420074 8.74512860483242  C 0.994423791821561 8.8074824629774  0.920074349442379 8.83476227591582  0.845724907063197 8.8269680436477  C 0.765179677819083 8.81137957911146  0.700123915737299 8.76851130163679  0.650557620817844 8.6983632112237  L 0.0743494423791822 7.8332034294622  C 0.0247831474597274 7.75526110678098  0.00309789343246595 7.66367887763055  0.00929368029739777 7.55845674201091  C 0.0154894671623297 7.45323460639127  0.0495662949194548 7.36944660950896  0.111524163568773 7.30709275136399  L 6.79368029739777 0.303975058456742  C 6.99194547707559 0.101325019485579  7.227385377943 0  7.5 0  C 7.772614622057 0  8.00805452292441 0.101325019485579  8.20631970260223 0.303975058456742  L 10.4739776951673 2.68901013250195  L 10.4739776951673 0.409197194076383  C 10.4739776951673 0.30007794232268  10.5018587360595 0.210444271239282  10.5576208178439 0.140296180826189  C 10.6133828996283 0.0701480904130947  10.684634448575 0.0350740452065473  10.771375464684 0.0350740452065473  L 12.5557620817844 0.0350740452065473  C 12.6425030978934 0.0350740452065473  12.7137546468401 0.0701480904130947  12.7695167286245 0.140296180826189  C 12.8252788104089 0.210444271239282  12.8531598513011 0.30007794232268  12.8531598513011 0.409197194076383  L 12.8531598513011 5.1792673421668  L 14.8884758364312 7.30709275136399  C 14.9504337050805 7.36944660950896  14.9845105328377 7.45323460639127  14.9907063197026 7.55845674201091  Z " fill-rule="nonzero" fill="#70b603" stroke="none" fill-opacity="0.996078431372549" transform="matrix(1 0 0 1 51 116 )" />
  </g>
</svg>