<?xml version="1.0" encoding="utf-8"?>
<svg version="1.1" xmlns:xlink="http://www.w3.org/1999/xlink" width="15px" height="15px" xmlns="http://www.w3.org/2000/svg">
  <g transform="matrix(1 0 0 1 -51 -221 )">
    <path d="M 14.234693877551 2.998046875  C 14.4627851140456 3.095703125  14.639855942377 3.23567708333333  14.765906362545 3.41796875  C 15.0060024009604 3.7890625  15.0600240096038 4.208984375  14.9279711884754 4.677734375  L 12.4519807923169 13.525390625  C 12.3379351740696 13.9420572916667  12.1083433373349 14.2919921875  11.7632052821128 14.5751953125  C 11.4180672268908 14.8583984375  11.0504201680672 15  10.6602641056423 15  L 2.3499399759904 15  C 1.88775510204082 15  1.44207683073229 14.8258463541667  1.01290516206483 14.4775390625  C 0.583733493397359 14.1292317708333  0.285114045618247 13.701171875  0.117046818727491 13.193359375  C -0.0270108043217287 12.7571614583333  -0.0330132052821129 12.34375  0.0990396158463385 11.953125  C 0.0990396158463385 11.9270833333333  0.108043217286915 11.8391927083333  0.126050420168067 11.689453125  C 0.14405762304922 11.5397135416667  0.156062424969988 11.4192708333333  0.162064825930372 11.328125  C 0.168067226890756 11.2760416666667  0.15906362545018 11.2060546875  0.135054021608643 11.1181640625  C 0.111044417767107 11.0302734375  0.102040816326531 10.966796875  0.108043217286915 10.927734375  C 0.120048019207683 10.8561197916667  0.14405762304922 10.7877604166667  0.180072028811525 10.72265625  C 0.21608643457383 10.6575520833333  0.265606242496999 10.5810546875  0.328631452581032 10.4931640625  C 0.391656662665066 10.4052734375  0.441176470588235 10.3287760416667  0.47719087635054 10.263671875  C 0.615246098439376 10.0162760416667  0.750300120048019 9.71842447916666  0.882352941176471 9.3701171875  C 1.01440576230492 9.02180989583333  1.10444177671068 8.72395833333333  1.15246098439376 8.4765625  C 1.17046818727491 8.41145833333333  1.17196878751501 8.31380208333333  1.15696278511405 8.18359375  C 1.14195678271309 8.05338541666667  1.14045618247299 7.96223958333333  1.15246098439376 7.91015625  C 1.17046818727491 7.83854166666667  1.22148859543818 7.74739583333333  1.30552220888355 7.63671875  C 1.38955582232893 7.52604166666667  1.4405762304922 7.451171875  1.45858343337335 7.412109375  C 1.58463385354142 7.177734375  1.71068427370948 6.87825520833333  1.83673469387755 6.513671875  C 1.96278511404562 6.14908854166667  2.03781512605042 5.85611979166667  2.06182472989196 5.634765625  C 2.06782713085234 5.576171875  2.06032412965186 5.47200520833333  2.03931572629052 5.322265625  C 2.01830732292917 5.17252604166667  2.01980792316927 5.08138020833333  2.0438175270108 5.048828125  C 2.06782713085234 4.96419270833333  2.13385354141657 4.86490885416666  2.24189675870348 4.7509765625  C 2.3499399759904 4.63704427083333  2.41596638655462 4.56380208333333  2.43997599039616 4.53125  C 2.55402160864346 4.36197916666667  2.68157262905162 4.0869140625  2.82262905162065 3.7060546875  C 2.96368547418968 3.3251953125  3.04621848739496 3.01106770833333  3.07022809123649 2.763671875  C 3.07623049219688 2.71158854166666  3.0672268907563 2.62858072916667  3.04321728691477 2.5146484375  C 3.01920768307323 2.40071614583333  3.01320528211285 2.314453125  3.02521008403361 2.255859375  C 3.03721488595438 2.20377604166667  3.06422569027611 2.14518229166667  3.1062424969988 2.080078125  C 3.14825930372149 2.01497395833333  3.20228091236495 1.94010416666667  3.26830732292917 1.85546875  C 3.3343337334934 1.77083333333333  3.38535414165666 1.70247395833333  3.42136854741897 1.650390625  C 3.46938775510204 1.572265625  3.51890756302521 1.47298177083333  3.56992797118848 1.3525390625  C 3.62094837935174 1.23209635416666  3.66596638655462 1.1181640625  3.70498199279712 1.0107421875  C 3.74399759903962 0.903320312499999  3.79201680672269 0.786132812499999  3.84903961584634 0.6591796875  C 3.90606242496999 0.532226562500001  3.96458583433373 0.428059895833333  4.02460984393757 0.346679687499999  C 4.08463385354142 0.265299479166665  4.16416566626651 0.188802083333332  4.26320528211285 0.1171875  C 4.36224489795918 0.0455729166666646  4.4702881152461 0.00813802083333315  4.58733493397359 0.00488281250000056  C 4.70438175270108 0.00162760416666463  4.8469387755102 0.0195312500000006  5.01500600240096 0.05859375  L 5.00600240096038 0.087890625  C 5.23409363745498 0.029296875  5.38715486194478 0  5.46518607442977 0  L 12.3169267707083 0  C 12.7611044417767 0  13.1032412965186 0.182291666666665  13.343337334934 0.546875000000001  C 13.5834333733493 0.911458333333333  13.6374549819928 1.33463541666666  13.5054021608643 1.81640625  L 11.0384153661465 10.6640625  C 10.8223289315726 11.4388020833333  10.6077430972389 11.9384765625  10.3946578631453 12.1630859375  C 10.1815726290516 12.3876953125  9.79591836734694 12.5  9.23769507803121 12.5  L 1.41356542617047 12.5  C 1.2515006002401 12.5  1.1374549819928 12.548828125  1.07142857142857 12.646484375  C 1.00540216086435 12.7506510416667  1.00240096038415 12.890625  1.062424969988 13.06640625  C 1.20648259303721 13.5221354166667  1.63865546218487 13.75  2.35894357743097 13.75  L 10.6692677070828 13.75  C 10.843337334934 13.75  11.0114045618247 13.6995442708333  11.1734693877551 13.5986328125  C 11.3355342136855 13.4977213541667  11.4405762304922 13.3626302083333  11.4885954381753 13.193359375  L 14.1896758703481 3.5546875  C 14.2316926770708 3.41145833333333  14.2466986794718 3.22591145833333  14.234693877551 2.998046875  Z M 5.37515006002401 2.8125  L 5.18607442977191 3.4375  C 5.16206482593037 3.52213541666667  5.16806722689076 3.59537760416667  5.20408163265306 3.6572265625  C 5.24009603841537 3.71907552083333  5.30012004801921 3.75  5.38415366146459 3.75  L 10.8583433373349 3.75  C 10.9363745498199 3.75  11.0129051620648 3.71907552083333  11.0879351740696 3.6572265625  C 11.1629651860744 3.59537760416667  11.2124849939976 3.52213541666667  11.2364945978391 3.4375  L 11.4255702280912 2.8125  C 11.4495798319328 2.72786458333333  11.4435774309724 2.65462239583333  11.4075630252101 2.5927734375  C 11.3715486194478 2.53092447916667  11.3115246098439 2.5  11.2274909963986 2.5  L 5.75330132052821 2.5  C 5.67527010804322 2.5  5.59873949579832 2.53092447916667  5.52370948379352 2.5927734375  C 5.44867947178872 2.65462239583333  5.39915966386555 2.72786458333333  5.37515006002401 2.8125  Z M 4.62785114045618 5.3125  L 4.43877551020408 5.9375  C 4.41476590636255 6.02213541666667  4.42076830732293 6.09537760416667  4.45678271308523 6.1572265625  C 4.49279711884754 6.21907552083333  4.55282112845138 6.25  4.63685474189676 6.25  L 10.1110444177671 6.25  C 10.1890756302521 6.25  10.265606242497 6.21907552083333  10.3406362545018 6.1572265625  C 10.4156662665066 6.09537760416667  10.4651860744298 6.02213541666667  10.4891956782713 5.9375  L 10.6782713085234 5.3125  C 10.7022809123649 5.22786458333333  10.6962785114046 5.15462239583333  10.6602641056423 5.0927734375  C 10.62424969988 5.03092447916667  10.5642256902761 5  10.4801920768307 5  L 5.00600240096038 5  C 4.92797118847539 5  4.85144057623049 5.03092447916667  4.77641056422569 5.0927734375  C 4.70138055222089 5.15462239583333  4.65186074429772 5.22786458333333  4.62785114045618 5.3125  Z " fill-rule="nonzero" fill="#8080ff" stroke="none" fill-opacity="0.996078431372549" transform="matrix(1 0 0 1 51 221 )" />
  </g>
</svg>