<?xml version="1.0" encoding="utf-8"?>
<svg version="1.1" xmlns:xlink="http://www.w3.org/1999/xlink" width="15px" height="15px" xmlns="http://www.w3.org/2000/svg">
  <g transform="matrix(1 0 0 1 -51 -151 )">
    <path d="M 3.134765625 11.0102982954545  C 3.18777901785714 11.0777698863636  3.21428571428571 11.1576704545455  3.21428571428571 11.25  L 3.21428571428571 11.9318181818182  C 3.21428571428571 12.0241477272727  3.18777901785714 12.1040482954545  3.134765625 12.1715198863636  C 3.08175223214286 12.2389914772727  3.01897321428571 12.2727272727273  2.94642857142857 12.2727272727273  L 2.41071428571429 12.2727272727273  C 2.33816964285714 12.2727272727273  2.275390625 12.2389914772727  2.22237723214286 12.1715198863636  C 2.16936383928571 12.1040482954545  2.14285714285714 12.0241477272727  2.14285714285714 11.9318181818182  L 2.14285714285714 11.25  C 2.14285714285714 11.1576704545455  2.16936383928571 11.0777698863636  2.22237723214286 11.0102982954545  C 2.275390625 10.9428267045455  2.33816964285714 10.9090909090909  2.41071428571429 10.9090909090909  L 2.94642857142857 10.9090909090909  C 3.01897321428571 10.9090909090909  3.08175223214286 10.9428267045455  3.134765625 11.0102982954545  Z M 3.134765625 8.28302556818182  C 3.18777901785714 8.35049715909091  3.21428571428571 8.43039772727273  3.21428571428571 8.52272727272727  L 3.21428571428571 9.20454545454546  C 3.21428571428571 9.296875  3.18777901785714 9.37677556818182  3.134765625 9.44424715909091  C 3.08175223214286 9.51171875  3.01897321428571 9.54545454545455  2.94642857142857 9.54545454545455  L 2.41071428571429 9.54545454545455  C 2.33816964285714 9.54545454545455  2.275390625 9.51171875  2.22237723214286 9.44424715909091  C 2.16936383928571 9.37677556818182  2.14285714285714 9.296875  2.14285714285714 9.20454545454546  L 2.14285714285714 8.52272727272727  C 2.14285714285714 8.43039772727273  2.16936383928571 8.35049715909091  2.22237723214286 8.28302556818182  C 2.275390625 8.21555397727273  2.33816964285714 8.18181818181818  2.41071428571429 8.18181818181818  L 2.94642857142857 8.18181818181818  C 3.01897321428571 8.18181818181818  3.08175223214286 8.21555397727273  3.134765625 8.28302556818182  Z M 3.134765625 5.55575284090909  C 3.18777901785714 5.62322443181818  3.21428571428571 5.703125  3.21428571428571 5.79545454545455  L 3.21428571428571 6.47727272727273  C 3.21428571428571 6.56960227272727  3.18777901785714 6.64950284090909  3.134765625 6.71697443181818  C 3.08175223214286 6.78444602272727  3.01897321428571 6.81818181818182  2.94642857142857 6.81818181818182  L 2.41071428571429 6.81818181818182  C 2.33816964285714 6.81818181818182  2.275390625 6.78444602272727  2.22237723214286 6.71697443181818  C 2.16936383928571 6.64950284090909  2.14285714285714 6.56960227272727  2.14285714285714 6.47727272727273  L 2.14285714285714 5.79545454545455  C 2.14285714285714 5.703125  2.16936383928571 5.62322443181818  2.22237723214286 5.55575284090909  C 2.275390625 5.48828125  2.33816964285714 5.45454545454546  2.41071428571429 5.45454545454546  L 2.94642857142857 5.45454545454546  C 3.01897321428571 5.45454545454546  3.08175223214286 5.48828125  3.134765625 5.55575284090909  Z M 12.7776227678571 11.0102982954545  C 12.8306361607143 11.0777698863636  12.8571428571429 11.1576704545455  12.8571428571429 11.25  L 12.8571428571429 11.9318181818182  C 12.8571428571429 12.0241477272727  12.8306361607143 12.1040482954545  12.7776227678571 12.1715198863636  C 12.724609375 12.2389914772727  12.6618303571429 12.2727272727273  12.5892857142857 12.2727272727273  L 4.55357142857143 12.2727272727273  C 4.48102678571429 12.2727272727273  4.41824776785714 12.2389914772727  4.365234375 12.1715198863636  C 4.31222098214286 12.1040482954545  4.28571428571429 12.0241477272727  4.28571428571429 11.9318181818182  L 4.28571428571429 11.25  C 4.28571428571429 11.1576704545455  4.31222098214286 11.0777698863636  4.365234375 11.0102982954545  C 4.41824776785714 10.9428267045455  4.48102678571429 10.9090909090909  4.55357142857143 10.9090909090909  L 12.5892857142857 10.9090909090909  C 12.6618303571429 10.9090909090909  12.724609375 10.9428267045455  12.7776227678571 11.0102982954545  Z M 12.7776227678571 8.28302556818182  C 12.8306361607143 8.35049715909091  12.8571428571429 8.43039772727273  12.8571428571429 8.52272727272727  L 12.8571428571429 9.20454545454546  C 12.8571428571429 9.296875  12.8306361607143 9.37677556818182  12.7776227678571 9.44424715909091  C 12.724609375 9.51171875  12.6618303571429 9.54545454545455  12.5892857142857 9.54545454545455  L 4.55357142857143 9.54545454545455  C 4.48102678571429 9.54545454545455  4.41824776785714 9.51171875  4.365234375 9.44424715909091  C 4.31222098214286 9.37677556818182  4.28571428571429 9.296875  4.28571428571429 9.20454545454546  L 4.28571428571429 8.52272727272727  C 4.28571428571429 8.43039772727273  4.31222098214286 8.35049715909091  4.365234375 8.28302556818182  C 4.41824776785714 8.21555397727273  4.48102678571429 8.18181818181818  4.55357142857143 8.18181818181818  L 12.5892857142857 8.18181818181818  C 12.6618303571429 8.18181818181818  12.724609375 8.21555397727273  12.7776227678571 8.28302556818182  Z M 12.7776227678571 5.55575284090909  C 12.8306361607143 5.62322443181818  12.8571428571429 5.703125  12.8571428571429 5.79545454545455  L 12.8571428571429 6.47727272727273  C 12.8571428571429 6.56960227272727  12.8306361607143 6.64950284090909  12.7776227678571 6.71697443181818  C 12.724609375 6.78444602272727  12.6618303571429 6.81818181818182  12.5892857142857 6.81818181818182  L 4.55357142857143 6.81818181818182  C 4.48102678571429 6.81818181818182  4.41824776785714 6.78444602272727  4.365234375 6.71697443181818  C 4.31222098214286 6.64950284090909  4.28571428571429 6.56960227272727  4.28571428571429 6.47727272727273  L 4.28571428571429 5.79545454545455  C 4.28571428571429 5.703125  4.31222098214286 5.62322443181818  4.365234375 5.55575284090909  C 4.41824776785714 5.48828125  4.48102678571429 5.45454545454546  4.55357142857143 5.45454545454546  L 12.5892857142857 5.45454545454546  C 12.6618303571429 5.45454545454546  12.724609375 5.48828125  12.7776227678571 5.55575284090909  Z M 13.8490513392857 13.53515625  C 13.9020647321429 13.4676846590909  13.9285714285714 13.3877840909091  13.9285714285714 13.2954545454545  L 13.9285714285714 4.43181818181818  C 13.9285714285714 4.33948863636363  13.9020647321429 4.25958806818182  13.8490513392857 4.19211647727273  C 13.7960379464286 4.12464488636363  13.7332589285714 4.09090909090909  13.6607142857143 4  L 1.33928571428571 4  C 1.26674107142857 4.09090909090909  1.20396205357143 4.12464488636363  1.15094866071429 4.19211647727273  C 1.09793526785714 4.25958806818182  1.07142857142857 4.33948863636363  1.07142857142857 4.43181818181818  L 1.07142857142857 13.2954545454545  C 1.07142857142857 13.3877840909091  1.09793526785714 13.4676846590909  1.15094866071429 13.53515625  C 1.20396205357143 13.6026278409091  1.26674107142857 13.6363636363636  1.33928571428571 13.6363636363636  L 13.6607142857143 13.6363636363636  C 13.7332589285714 13.6363636363636  13.7960379464286 13.6026278409091  13.8490513392857 13.53515625  Z M 14.6065848214286 0.500710227272727  C 14.8688616071429 0.834517045454544  15 1.23579545454545  15 1.70454545454545  L 15 13.2954545454545  C 15 13.7642045454545  14.8688616071429 14.1654829545455  14.6065848214286 14.4992897727273  C 14.3443080357143 14.8330965909091  14.0290178571429 15  13.6607142857143 15  L 1.33928571428571 15  C 0.970982142857143 15  0.655691964285714 14.8330965909091  0.393415178571429 14.4992897727273  C 0.131138392857143 14.1654829545455  0 13.7642045454545  0 13.2954545454545  L 0 1.70454545454545  C 0 1.23579545454545  0.131138392857143 0.834517045454544  0.393415178571429 0.500710227272727  C 0.655691964285714 0.166903409090907  0.970982142857143 0  1.33928571428571 0  L 13.6607142857143 0  C 14.0290178571429 0  14.3443080357143 0.166903409090907  14.6065848214286 0.500710227272727  Z " fill-rule="nonzero" fill="#81d3f8" stroke="none" fill-opacity="0.996078431372549" transform="matrix(1 0 0 1 51 151 )" />
  </g>
</svg>