<?xml version="1.0" encoding="utf-8"?>
<svg version="1.1" xmlns:xlink="http://www.w3.org/1999/xlink" width="19px" height="18px" xmlns="http://www.w3.org/2000/svg">
  <g transform="matrix(1 0 0 1 -1272 -21 )">
    <path d="M 18.3605769230769 6.45368620037807  C 18.786858974359 6.52173913043478  19 6.69565217391304  19 6.97542533081285  C 19 7.14177693761815  18.9010416666667 7.32325141776937  18.703125 7.51984877126654  L 14.5582932692308 11.5349716446125  L 15.5402644230769 17.2060491493384  C 15.5478766025641 17.2589792060492  15.5516826923077 17.3345935727788  15.5516826923077 17.4328922495274  C 15.5516826923077 17.5916824196597  15.51171875 17.7258979206049  15.4317908653846 17.8355387523629  C 15.3518629807692 17.945179584121  15.2357772435897 18  15.0835336538462 18  C 14.9389022435897 18  14.7866586538462 17.9546313799622  14.6268028846154 17.8638941398866  L 9.5 15.187145557656  L 4.37319711538462 17.8638941398866  C 4.20572916666667 17.9546313799622  4.05348557692308 18  3.91646634615385 18  C 3.75661057692308 18  3.63671875 17.945179584121  3.55679086538462 17.8355387523629  C 3.47686298076923 17.7258979206049  3.43689903846154 17.5916824196597  3.43689903846154 17.4328922495274  C 3.43689903846154 17.3875236294896  3.44451121794872 17.3119092627599  3.45973557692308 17.2060491493384  L 4.44170673076923 11.5349716446125  L 0.285456730769231 7.51984877126654  C 0.0951522435897436 7.31568998109641  0 7.13421550094518  0 6.97542533081285  C 0 6.69565217391304  0.213141025641026 6.52173913043478  0.639423076923077 6.45368620037807  L 6.37139423076923 5.62570888468809  L 8.94050480769231 0.465028355387523  C 9.08513621794872 0.15500945179584  9.27163461538462 0  9.5 0  C 9.72836538461538 0  9.91486378205128 0.15500945179584  10.0594951923077 0.465028355387523  L 12.6286057692308 5.62570888468809  L 18.3605769230769 6.45368620037807  Z " fill-rule="nonzero" fill="#333333" stroke="none" transform="matrix(1 0 0 1 1272 21 )" />
  </g>
</svg>