<?xml version="1.0" encoding="utf-8"?>
<svg version="1.1" xmlns:xlink="http://www.w3.org/1999/xlink" width="17px" height="18px" xmlns="http://www.w3.org/2000/svg">
  <g transform="matrix(1 0 0 1 -1302 -21 )">
    <path d="M 8.5 17.1964285714286  C 8.60897435897436 17.1964285714286  8.66346153846154 17.1428571428571  8.66346153846154 17.0357142857143  C 8.66346153846154 16.9285714285714  8.60897435897436 16.875  8.5 16.875  C 8.09815705128205 16.875  7.75250400641026 16.7327008928571  7.46304086538462 16.4481026785714  C 7.17357772435898 16.1635044642857  7.02884615384615 15.8236607142857  7.02884615384615 15.4285714285714  C 7.02884615384615 15.3214285714286  6.97435897435898 15.2678571428571  6.86538461538462 15.2678571428571  C 6.75641025641026 15.2678571428571  6.70192307692308 15.3214285714286  6.70192307692308 15.4285714285714  C 6.70192307692308 15.9174107142857  6.87730368589744 16.3342633928571  7.22806490384615 16.6791294642857  C 7.57882612179487 17.0239955357143  8.00280448717949 17.1964285714286  8.5 17.1964285714286  Z M 16.0703125 13.2589285714286  C 16.3495592948718 13.5669642857143  16.6594551282051 13.8616071428571  17 14.1428571428571  C 17 14.4910714285714  16.8705929487179 14.7924107142857  16.6117788461538 15.046875  C 16.3529647435897 15.3013392857143  16.0464743589744 15.4285714285714  15.6923076923077 15.4285714285714  L 11.1153846153846 15.4285714285714  C 11.1153846153846 16.1383928571429  10.8599759615385 16.7444196428571  10.3491586538462 17.2466517857143  C 9.83834134615385 17.7488839285714  9.22195512820513 18  8.5 18  C 7.77804487179487 18  7.16165865384615 17.7488839285714  6.65084134615385 17.2466517857143  C 6.14002403846154 16.7444196428571  5.88461538461538 16.1383928571429  5.88461538461538 15.4285714285714  L 1.30769230769231 15.4285714285714  C 0.953525641025641 15.4285714285714  0.647035256410257 15.3013392857143  0.388221153846154 15.046875  C 0.129407051282051 14.7924107142857  0 14.4910714285714  0 14.1428571428571  C 0.340544871794872 13.8616071428571  0.650440705128205 13.5669642857143  0.9296875 13.2589285714286  C 1.2089342948718 12.9508928571429  1.49839743589744 12.55078125  1.79807692307692 12.05859375  C 2.09775641025641 11.56640625  2.35146233974359 11.0357142857143  2.55919471153846 10.4665178571429  C 2.76692708333333 9.89732142857143  2.93719951923077 9.20758928571429  3.07001201923077 8.39732142857143  C 3.20282451923077 7.58705357142857  3.26923076923077 6.71651785714286  3.26923076923077 5.78571428571428  C 3.26923076923077 4.76785714285714  3.66766826923077 3.82198660714286  4.46454326923077 2.94810267857143  C 5.26141826923077 2.07421875  6.30689102564103 1.54352678571428  7.60096153846154 1.35602678571429  C 7.54647435897436 1.22879464285714  7.51923076923077 1.09821428571429  7.51923076923077 0.964285714285715  C 7.51923076923077 0.696428571428571  7.61458333333333 0.468749999999999  7.80528846153846 0.28125  C 7.99599358974359 0.0937500000000007  8.2275641025641 0  8.5 0  C 8.7724358974359 0  9.00400641025641 0.0937500000000007  9.19471153846154 0.28125  C 9.38541666666667 0.468749999999999  9.48076923076923 0.696428571428571  9.48076923076923 0.964285714285715  C 9.48076923076923 1.09821428571429  9.45352564102564 1.22879464285714  9.39903846153846 1.35602678571429  C 10.693108974359 1.54352678571428  11.7385817307692 2.07421875  12.5354567307692 2.94810267857143  C 13.3323317307692 3.82198660714286  13.7307692307692 4.76785714285714  13.7307692307692 5.78571428571428  C 13.7307692307692 6.71651785714286  13.7971754807692 7.58705357142857  13.9299879807692 8.39732142857143  C 14.0628004807692 9.20758928571429  14.2330729166667 9.89732142857143  14.4408052884615 10.4665178571429  C 14.6485376602564 11.0357142857143  14.9022435897436 11.56640625  15.2019230769231 12.05859375  C 15.5016025641026 12.55078125  15.7910657051282 12.9508928571429  16.0703125 13.2589285714286  Z " fill-rule="nonzero" fill="#333333" stroke="none" transform="matrix(1 0 0 1 1302 21 )" />
  </g>
</svg>