<?xml version="1.0" encoding="utf-8"?>
<svg version="1.1" xmlns:xlink="http://www.w3.org/1999/xlink" width="15px" height="15px" xmlns="http://www.w3.org/2000/svg">
  <g transform="matrix(1 0 0 1 -51 -186 )">
    <path d="M 1 13.75  L 15 13.75  L 15 15  L 0 15  L 0 0  L 1 0  L 1 13.75  Z M 13.99658203125 1.337890625  C 14.04052734375 1.396484375  14.0625 1.47135416666667  14.0625 1.5625  L 14.0625 5.810546875  C 14.0625 5.947265625  14.014892578125 6.04329427083333  13.919677734375 6.0986328125  C 13.824462890625 6.15397135416667  13.73779296875 6.12955729166667  13.65966796875 6.025390625  L 12.7734375 4.84375  L 8.13720703125 11.025390625  C 8.08837890625 11.0904947916667  8.0322265625 11.123046875  7.96875 11.123046875  C 7.9052734375 11.123046875  7.84912109375 11.0904947916667  7.80029296875 11.025390625  L 6.09375 8.75  L 3.046875 12.8125  L 1.640625 10.9375  L 5.92529296875 5.224609375  C 5.97412109375 5.15950520833333  6.0302734375 5.126953125  6.09375 5.126953125  C 6.1572265625 5.126953125  6.21337890625 5.15950520833333  6.26220703125 5.224609375  L 7.96875 7.5  L 11.3671875 2.96875  L 10.48095703125 1.787109375  C 10.40283203125 1.68294270833333  10.384521484375 1.5673828125  10.426025390625 1.4404296875  C 10.467529296875 1.3134765625  10.53955078125 1.25  10.64208984375 1.25  L 13.828125 1.25  C 13.896484375 1.25  13.95263671875 1.279296875  13.99658203125 1.337890625  Z " fill-rule="nonzero" fill="#ec808d" stroke="none" fill-opacity="0.996078431372549" transform="matrix(1 0 0 1 51 186 )" />
  </g>
</svg>